<mxfile host="Electron" modified="2023-06-26T00:42:23.529Z" agent="Mozilla/5.0 (Macintosh; Intel Mac OS X 10_15_7) AppleWebKit/537.36 (KHTML, like Gecko) draw.io/21.5.0 Chrome/112.0.5615.204 Electron/24.5.1 Safari/537.36" etag="P1NwehlUDTjf0joYYLfC" version="21.5.0" type="device">
  <diagram name="Page-1" id="RwfPNfhvXtgPBQgHzjWf">
    <mxGraphModel dx="1306" dy="854" grid="1" gridSize="10" guides="1" tooltips="1" connect="1" arrows="1" fold="1" page="1" pageScale="1" pageWidth="850" pageHeight="1100" math="0" shadow="0">
      <root>
        <mxCell id="0" />
        <mxCell id="1" parent="0" />
        <mxCell id="6fFnpI2ETUbby9dZv0s2-1" value="&lt;b style=&quot;font-weight:normal;&quot; id=&quot;docs-internal-guid-d1765ab8-7fff-5156-de28-8e75f1ed28f1&quot;&gt;&lt;img width=&quot;244px;&quot; height=&quot;238px;&quot; src=&quot;https://lh6.googleusercontent.com/lfd56HSnweto-8dXkMeST1R-JptDX59SEBaXvdftJEbozCKcspHJABIKOLk9avf7b3ohm2aB9Om6vp_vhwcFcV166Yq16Ca-K3CZ8Z-AsE2sbXnP1-ZK_7W7bXWT3C5gdFkXP09m8lU6xnRTfe9dPGfW=s2048&quot;&gt;&lt;/b&gt;" style="text;whiteSpace=wrap;html=1;" vertex="1" parent="1">
          <mxGeometry x="120" y="250" width="280" height="260" as="geometry" />
        </mxCell>
        <mxCell id="6fFnpI2ETUbby9dZv0s2-2" value="&lt;font style=&quot;font-size: 14px;&quot;&gt;AddExpr: +&lt;/font&gt;" style="rounded=1;whiteSpace=wrap;html=1;arcSize=5;fontFamily=SF Mono;fillColor=#dae8fc;strokeColor=#6c8ebf;" vertex="1" parent="1">
          <mxGeometry x="510" y="280" width="120" height="40" as="geometry" />
        </mxCell>
        <mxCell id="6fFnpI2ETUbby9dZv0s2-3" value="&lt;font style=&quot;font-size: 14px;&quot;&gt;1&lt;/font&gt;" style="rounded=1;whiteSpace=wrap;html=1;arcSize=5;fontFamily=SF Mono;fillColor=#f5f5f5;strokeColor=#666666;fontColor=#333333;" vertex="1" parent="1">
          <mxGeometry x="460" y="360" width="40" height="40" as="geometry" />
        </mxCell>
        <mxCell id="6fFnpI2ETUbby9dZv0s2-4" value="&lt;font style=&quot;font-size: 14px;&quot;&gt;2&lt;/font&gt;" style="rounded=1;whiteSpace=wrap;html=1;arcSize=5;fontFamily=SF Mono;fillColor=#f5f5f5;strokeColor=#666666;fontColor=#333333;" vertex="1" parent="1">
          <mxGeometry x="580" y="440" width="40" height="40" as="geometry" />
        </mxCell>
        <mxCell id="6fFnpI2ETUbby9dZv0s2-6" value="&lt;font style=&quot;font-size: 14px;&quot;&gt;MulExpr: *&lt;/font&gt;" style="rounded=1;whiteSpace=wrap;html=1;arcSize=5;fontFamily=SF Mono;fillColor=#dae8fc;strokeColor=#6c8ebf;" vertex="1" parent="1">
          <mxGeometry x="620" y="360" width="120" height="40" as="geometry" />
        </mxCell>
        <mxCell id="6fFnpI2ETUbby9dZv0s2-7" value="&lt;font style=&quot;font-size: 14px;&quot;&gt;2&lt;/font&gt;" style="rounded=1;whiteSpace=wrap;html=1;arcSize=5;fontFamily=SF Mono;fillColor=#f5f5f5;strokeColor=#666666;fontColor=#333333;" vertex="1" parent="1">
          <mxGeometry x="740" y="440" width="40" height="40" as="geometry" />
        </mxCell>
        <mxCell id="6fFnpI2ETUbby9dZv0s2-8" value="" style="endArrow=classic;html=1;rounded=0;exitX=0.5;exitY=1;exitDx=0;exitDy=0;entryX=0.5;entryY=0;entryDx=0;entryDy=0;" edge="1" parent="1" source="6fFnpI2ETUbby9dZv0s2-2" target="6fFnpI2ETUbby9dZv0s2-3">
          <mxGeometry width="50" height="50" relative="1" as="geometry">
            <mxPoint x="340" y="420" as="sourcePoint" />
            <mxPoint x="390" y="370" as="targetPoint" />
          </mxGeometry>
        </mxCell>
        <mxCell id="6fFnpI2ETUbby9dZv0s2-9" value="" style="endArrow=classic;html=1;rounded=0;exitX=0.5;exitY=1;exitDx=0;exitDy=0;entryX=0.5;entryY=0;entryDx=0;entryDy=0;" edge="1" parent="1" source="6fFnpI2ETUbby9dZv0s2-2" target="6fFnpI2ETUbby9dZv0s2-6">
          <mxGeometry width="50" height="50" relative="1" as="geometry">
            <mxPoint x="340" y="420" as="sourcePoint" />
            <mxPoint x="390" y="370" as="targetPoint" />
          </mxGeometry>
        </mxCell>
        <mxCell id="6fFnpI2ETUbby9dZv0s2-10" value="" style="endArrow=classic;html=1;rounded=0;exitX=0.5;exitY=1;exitDx=0;exitDy=0;entryX=0.5;entryY=0;entryDx=0;entryDy=0;" edge="1" parent="1" source="6fFnpI2ETUbby9dZv0s2-6" target="6fFnpI2ETUbby9dZv0s2-4">
          <mxGeometry width="50" height="50" relative="1" as="geometry">
            <mxPoint x="340" y="420" as="sourcePoint" />
            <mxPoint x="390" y="370" as="targetPoint" />
          </mxGeometry>
        </mxCell>
        <mxCell id="6fFnpI2ETUbby9dZv0s2-11" value="" style="endArrow=classic;html=1;rounded=0;exitX=0.5;exitY=1;exitDx=0;exitDy=0;entryX=0.5;entryY=0;entryDx=0;entryDy=0;" edge="1" parent="1" source="6fFnpI2ETUbby9dZv0s2-6" target="6fFnpI2ETUbby9dZv0s2-7">
          <mxGeometry width="50" height="50" relative="1" as="geometry">
            <mxPoint x="340" y="420" as="sourcePoint" />
            <mxPoint x="390" y="370" as="targetPoint" />
          </mxGeometry>
        </mxCell>
      </root>
    </mxGraphModel>
  </diagram>
</mxfile>
